<?xml version="1.0" standalone="no"?>
<!DOCTYPE svg PUBLIC "-//W3C//DTD SVG 20010904//EN"
 "http://www.w3.org/TR/2001/REC-SVG-20010904/DTD/svg10.dtd">
<svg version="1.0" xmlns="http://www.w3.org/2000/svg"
 width="48px" height="48px" viewBox="0 0 150.000000 150.000000"
 preserveAspectRatio="xMidYMid meet">
<metadata>
Created by potrace 1.10, written by Peter Selinger 2001-2011
</metadata>
<g transform="translate(0.000000,150.000000) scale(0.100000,-0.100000)"
fill="currentColor" stroke="none">
<path d="M700 1414 c-11 -26 -20 -51 -20 -56 0 -6 -6 -22 -14 -36 -13 -26 -32
-73 -61 -152 -68 -187 -80 -210 -112 -210 -125 -2 -462 -20 -475 -25 -21 -8
-24 -41 -5 -58 6 -7 56 -48 111 -91 54 -44 110 -90 125 -102 14 -12 51 -42 81
-67 52 -42 55 -46 53 -86 -1 -24 -8 -64 -16 -89 -8 -26 -22 -76 -32 -112 -28
-107 -46 -172 -61 -219 -21 -66 13 -93 67 -53 32 22 60 40 79 49 8 4 43 26 78
50 35 24 65 43 66 43 2 0 41 25 86 55 45 30 86 55 90 55 4 0 24 -11 44 -25 20
-14 39 -25 41 -25 2 0 33 -20 69 -45 37 -25 68 -45 71 -45 3 0 34 -20 71 -45
36 -25 68 -45 71 -45 2 0 16 -9 30 -20 55 -43 91 -17 69 51 -8 24 -21 69 -29
99 -16 61 -37 136 -60 220 -27 95 -30 129 -16 146 8 9 47 43 89 75 156 122
248 197 269 222 8 9 21 17 28 17 7 0 13 8 13 19 0 27 -22 30 -295 41 -230 10
-241 11 -258 33 -9 12 -20 33 -23 47 -3 14 -12 39 -19 55 -7 17 -20 48 -28 70
-8 22 -23 60 -32 85 -9 25 -24 63 -32 85 -9 22 -21 54 -29 70 -7 17 -15 38
-18 48 -11 34 -44 19 -66 -29z"/>
</g>
</svg>
